<svg viewBox="0 0 100 100" fill="none" xmlns="http://www.w3.org/2000/svg"><path d="M24 76 L11 89" fill="none" stroke="#12B5A8" stroke-width="4.2" stroke-linecap="round" opacity="0.9"></path><path d="M18.5 78.5 L23.5 73.5" stroke="#0d0f18" stroke-width="1.1" opacity="0.9" stroke-linecap="round"></path><path d="M15 82 L20 77" stroke="#0d0f18" stroke-width="1.1" opacity="0.9" stroke-linecap="round"></path><path d="M11.5 85.5 L16.5 80.5" stroke="#0d0f18" stroke-width="1.1" opacity="0.9" stroke-linecap="round"></path><circle cx="10" cy="90" r="3.4" fill="#12B5A8"></circle><path d="M14 61 L34 91" fill="none" stroke="#2CCFC1" stroke-width="4.6" stroke-linecap="round"></path><path d="M18 66 L78 20 L90 14 L86 30 L30 88 Z" fill="rgba(18,181,168,0.14)"></path><path d="M18 66 L58 46" stroke="#12B5A8" stroke-width="1.2" opacity="0.42" stroke-linecap="round"></path><path d="M30 88 L58 46" stroke="#12B5A8" stroke-width="1.2" opacity="0.42" stroke-linecap="round"></path><path d="M58 46 L86 30" stroke="#12B5A8" stroke-width="1.2" opacity="0.42" stroke-linecap="round"></path><path d="M50 34 L90 14" stroke="#12B5A8" stroke-width="1.2" opacity="0.42" stroke-linecap="round"></path><path d="M18 66 L30 88" stroke="#12B5A8" stroke-width="1.2" opacity="0.42" stroke-linecap="round"></path><path d="M90 14 L97 8" stroke="#12B5A8" stroke-width="1.3" opacity="0.6" stroke-linecap="round"></path><path d="M90 14 L98 20" stroke="#12B5A8" stroke-width="1.3" opacity="0.6" stroke-linecap="round"></path><path d="M18 66 L78 20 L90 14" fill="none" stroke="rgba(18,181,168,0.42)" stroke-width="1.6" stroke-linejoin="round" stroke-linecap="round"></path><path d="M90 14 L86 30 L30 88" fill="none" stroke="#2CCFC1" stroke-width="6" stroke-linejoin="round" stroke-linecap="round"></path><circle cx="97" cy="8" r="2.2" fill="#12B5A8" opacity="0.7"></circle><circle cx="98" cy="20" r="1.9" fill="#12B5A8" opacity="0.7"></circle><circle cx="18" cy="66" r="3.6" fill="#2CCFC1"></circle><circle cx="30" cy="88" r="4.6" fill="#12B5A8"></circle><circle cx="90" cy="14" r="4.8" fill="#12B5A8"></circle><circle cx="58" cy="46" r="3.2" fill="#2CCFC1"></circle><circle cx="50" cy="34" r="2.8" fill="#12B5A8"></circle><circle cx="42" cy="60" r="4.8" fill="none" stroke="#2CCFC1" stroke-width="2.2"></circle><circle cx="33" cy="73" r="3.8" fill="none" stroke="#2CCFC1" stroke-width="2.2"></circle></svg>
